<?xml version="1.0" encoding="UTF-8"?><svg id="Layer_1" xmlns="http://www.w3.org/2000/svg" viewBox="0 0 93.04 84.73"><defs><style>.cls-1{fill:#fc0;}.cls-2{fill:#231f20;}.cls-3{fill:none;stroke:#231f20;stroke-linecap:round;stroke-linejoin:round;stroke-width:4px;}</style></defs><polygon class="cls-1" points="65.44 81.88 65.29 33.71 74.72 28.1 84.31 33.78 84.46 81.62 65.44 81.88"/><polygon class="cls-1" points="41.69 83.44 41.54 44.81 50.98 39.19 60.57 44.87 60.71 83.18 41.69 83.44"/><polygon class="cls-1" points="17.98 83.46 17.83 54.37 27.26 48.75 36.85 54.44 37 83.21 17.98 83.46"/><polyline class="cls-3" points="91.04 82.73 6.57 82.73 6.57 2"/><path class="cls-2" d="m10.67,70.43H2C.9,70.43,0,69.53,0,68.43s.9-2,2-2h8.67c1.1,0,2,.9,2,2s-.9,2-2,2Z"/><path class="cls-2" d="m10.9,50.71H2.24c-1.1,0-2-.9-2-2s.9-2,2-2h8.67c1.1,0,2,.9,2,2s-.9,2-2,2Z"/><path class="cls-2" d="m10.67,31.56H2c-1.1,0-2-.9-2-2s.9-2,2-2h8.67c1.1,0,2,.9,2,2s-.9,2-2,2Z"/><path class="cls-2" d="m10.67,12.92H2c-1.1,0-2-.9-2-2s.9-2,2-2h8.67c1.1,0,2,.9,2,2s-.9,2-2,2Z"/></svg>